<svg id="visual" viewBox="0 0 1200 400" width="1200" height="400" xmlns="http://www.w3.org/2000/svg" xmlns:xlink="http://www.w3.org/1999/xlink" version="1.1"><rect x="0" y="0" width="1200" height="400" fill="#2c3e50"></rect><path d="M0 202L120 195L240 160L360 207L480 195L600 211L720 198L840 159L960 201L1080 165L1200 211L1200 401L1080 401L960 401L840 401L720 401L600 401L480 401L360 401L240 401L120 401L0 401Z" fill="#e59866"></path><path d="M0 209L120 230L240 237L360 234L480 238L600 245L720 215L840 214L960 236L1080 250L1200 215L1200 401L1080 401L960 401L840 401L720 401L600 401L480 401L360 401L240 401L120 401L0 401Z" fill="#d38f64"></path><path d="M0 255L120 260L240 278L360 273L480 258L600 257L720 265L840 283L960 281L1080 254L1200 266L1200 401L1080 401L960 401L840 401L720 401L600 401L480 401L360 401L240 401L120 401L0 401Z" fill="#c28661"></path><path d="M0 290L120 307L240 287L360 289L480 298L600 292L720 294L840 295L960 294L1080 311L1200 307L1200 401L1080 401L960 401L840 401L720 401L600 401L480 401L360 401L240 401L120 401L0 401Z" fill="#b17d5e"></path><path d="M0 354L120 349L240 331L360 348L480 346L600 343L720 354L840 348L960 360L1080 336L1200 355L1200 401L1080 401L960 401L840 401L720 401L600 401L480 401L360 401L240 401L120 401L0 401Z" fill="#a0745b"></path></svg>